<svg xmlns="http://www.w3.org/2000/svg" xmlns:xlink="http://www.w3.org/1999/xlink" width="500" zoomAndPan="magnify" viewBox="0 0 375 374.999991" height="500" preserveAspectRatio="xMidYMid meet" version="1.0"><defs><clipPath id="eca302a171"><path d="M 56 45 L 323 45 L 323 337.269531 L 56 337.269531 Z M 56 45 " clip-rule="nonzero"/></clipPath></defs><g clip-path="url(#eca302a171)"><path fill="#ba5a87" d="M 293.273438 45.4375 C 290.3125 44.996094 262.113281 41.800781 225.867188 73.265625 C 213.617188 84.089844 195.703125 87.546875 180.742188 81.757812 C 188.949219 78.5625 202.25 72.597656 213.867188 63.769531 C 218.121094 60.539062 222.738281 57.957031 227.714844 56.019531 C 228.140625 55.851562 228.515625 55.613281 228.84375 55.296875 C 229.175781 54.980469 229.429688 54.613281 229.613281 54.195312 C 229.796875 53.777344 229.894531 53.339844 229.902344 52.882812 C 229.914062 52.429688 229.835938 51.988281 229.667969 51.5625 C 229.503906 51.136719 229.261719 50.761719 228.945312 50.429688 C 228.628906 50.101562 228.261719 49.84375 227.84375 49.664062 C 227.425781 49.480469 226.988281 49.382812 226.535156 49.375 C 226.078125 49.363281 225.636719 49.441406 225.210938 49.609375 C 219.636719 51.777344 214.464844 54.671875 209.699219 58.292969 C 192.8125 71.125 171.359375 77.820312 170.949219 77.945312 C 161.535156 80.164062 107.070312 100.859375 128.429688 134.347656 C 124.972656 134.171875 121.527344 134.304688 118.09375 134.753906 C 114.664062 135.203125 111.300781 135.957031 108.003906 137.015625 C 104.707031 138.078125 101.535156 139.425781 98.488281 141.0625 C 95.4375 142.699219 92.558594 144.59375 89.855469 146.753906 C 88.679688 147.519531 87.59375 148.394531 86.589844 149.371094 C 85.585938 150.347656 84.6875 151.414062 83.894531 152.566406 C 83.097656 153.722656 82.421875 154.941406 81.867188 156.226562 C 81.308594 157.511719 80.878906 158.835938 80.582031 160.207031 C 80.40625 161.019531 80.296875 161.839844 80.253906 162.667969 C 80.210938 163.496094 80.238281 164.324219 80.332031 165.148438 C 80.429688 165.972656 80.589844 166.785156 80.820312 167.585938 C 81.050781 168.382812 81.34375 169.15625 81.699219 169.90625 C 82.054688 170.65625 82.472656 171.371094 82.949219 172.054688 C 83.421875 172.734375 83.949219 173.371094 84.53125 173.964844 C 85.113281 174.558594 85.738281 175.101562 86.40625 175.59375 C 87.078125 176.082031 87.785156 176.515625 88.523438 176.890625 C 69.613281 203.003906 59.480469 234.367188 58.402344 270.171875 C 51.582031 292.273438 60.417969 336.128906 103.097656 337.503906 C 106.503906 337.519531 109.863281 337.128906 113.171875 336.320312 C 116.484375 335.515625 119.648438 334.320312 122.667969 332.742188 C 145.925781 320.03125 133.023438 282.894531 106.710938 290.152344 C 106.804688 281.90625 97.105469 276.394531 90.078125 280.871094 C 79.128906 287.113281 71.8125 281.351562 65.296875 269.878906 C 66.449219 234.574219 76.738281 203.835938 95.890625 178.503906 C 99.296875 178.351562 102.246094 177.179688 105.515625 175.730469 C 122 168.394531 136.21875 174.207031 152.078125 183.769531 C 179.449219 201.351562 201.140625 217.296875 242.5 232.28125 C 246.210938 233.613281 250.039062 234.378906 253.976562 234.585938 C 257.914062 234.792969 261.796875 234.429688 265.628906 233.492188 C 261.574219 251.425781 263.136719 270.191406 271.007812 286.859375 C 283.4375 313.554688 281.8125 331.773438 281.789062 332.035156 C 281.742188 332.488281 281.78125 332.933594 281.910156 333.371094 C 282.039062 333.808594 282.25 334.207031 282.535156 334.558594 C 282.824219 334.914062 283.167969 335.199219 283.570312 335.417969 C 283.96875 335.636719 284.398438 335.769531 284.851562 335.816406 C 285.304688 335.863281 285.75 335.824219 286.1875 335.691406 C 286.625 335.5625 287.019531 335.355469 287.375 335.066406 C 287.730469 334.78125 288.015625 334.4375 288.234375 334.035156 C 288.449219 333.636719 288.582031 333.207031 288.632812 332.753906 C 288.714844 331.941406 290.582031 312.59375 277.242188 283.953125 C 269.273438 267.34375 268.6875 248.519531 273.234375 230.828125 C 275.476562 229.789062 277.605469 228.546875 279.621094 227.113281 C 281.640625 225.679688 283.507812 224.070312 285.226562 222.292969 C 286.945312 220.515625 288.488281 218.59375 289.855469 216.53125 C 291.222656 214.464844 292.386719 212.296875 293.351562 210.015625 C 304.832031 182.964844 319.167969 122.097656 322.207031 74.601562 C 323.4375 57.730469 310.140625 45.867188 293.273438 45.4375 Z M 76.792969 289.625 C 82.21875 291.128906 88.039062 290.136719 93.632812 286.761719 C 97.640625 284.351562 101.910156 289.621094 98.730469 293.046875 L 96.3125 295.65625 C 93.679688 298.496094 97.128906 302.886719 100.511719 301 L 106.128906 297.859375 C 106.773438 297.5 107.445312 297.1875 108.140625 296.933594 C 108.835938 296.675781 109.546875 296.472656 110.273438 296.332031 C 111 296.1875 111.734375 296.097656 112.476562 296.070312 C 113.214844 296.042969 113.953125 296.074219 114.6875 296.160156 C 115.425781 296.25 116.148438 296.394531 116.863281 296.597656 C 117.574219 296.800781 118.265625 297.058594 118.9375 297.371094 C 119.613281 297.683594 120.253906 298.042969 120.871094 298.457031 C 121.484375 298.871094 122.0625 299.332031 122.605469 299.835938 C 130.886719 307.128906 129.285156 321.648438 119.394531 326.6875 C 104.46875 334.621094 84.898438 330.125 73.871094 317.1875 C 63.289062 304.972656 62.761719 289.429688 63.695312 280.027344 C 67.625 285.078125 72.007812 288.296875 76.792969 289.625 Z M 131.230469 114.132812 C 136.152344 97.335938 164.824219 87.144531 171.511719 84.976562 C 189.773438 95.667969 214.386719 92.675781 230.378906 78.460938 C 245.769531 65.101562 259.601562 58.425781 270.269531 55.132812 C 266.261719 59.9375 263.4375 66.417969 262.023438 74.398438 C 262.035156 74.402344 249.8125 159.636719 249.824219 159.679688 C 249.761719 160.09375 249.671875 160.5 249.566406 160.902344 C 249.457031 161.304688 249.324219 161.699219 249.171875 162.085938 C 249.019531 162.476562 248.847656 162.855469 248.65625 163.222656 C 248.460938 163.59375 248.25 163.949219 248.019531 164.296875 C 247.785156 164.640625 247.535156 164.976562 247.269531 165.292969 C 247 165.613281 246.714844 165.917969 246.414062 166.203125 C 246.113281 166.492188 245.796875 166.761719 245.464844 167.015625 C 245.136719 167.269531 244.792969 167.503906 244.433594 167.722656 C 244.078125 167.9375 243.710938 168.132812 243.335938 168.3125 C 242.957031 168.488281 242.570312 168.640625 242.175781 168.777344 C 241.78125 168.910156 241.382812 169.023438 240.972656 169.113281 C 240.566406 169.207031 240.15625 169.273438 239.742188 169.320312 C 239.328125 169.367188 238.914062 169.390625 238.496094 169.390625 C 238.078125 169.390625 237.664062 169.371094 237.25 169.324219 C 236.835938 169.28125 236.425781 169.214844 236.015625 169.125 C 235.609375 169.035156 235.207031 168.925781 234.8125 168.792969 C 215.289062 161.628906 196.976562 154.957031 180.804688 149.34375 C 189.085938 147.511719 198.648438 143.191406 208.097656 134.066406 C 208.421875 133.746094 208.675781 133.378906 208.859375 132.960938 C 209.039062 132.542969 209.132812 132.105469 209.140625 131.652344 C 209.148438 131.195312 209.066406 130.757812 208.902344 130.332031 C 208.734375 129.910156 208.492188 129.535156 208.175781 129.207031 C 207.859375 128.878906 207.492188 128.625 207.074219 128.441406 C 206.65625 128.261719 206.21875 128.164062 205.765625 128.15625 C 205.308594 128.148438 204.867188 128.226562 204.445312 128.394531 C 204.019531 128.558594 203.644531 128.800781 203.316406 129.117188 C 174.660156 154.519531 157.90625 139.960938 137.988281 135.808594 C 131.539062 128.148438 129.257812 120.863281 131.230469 114.132812 Z M 315.34375 74.164062 C 312.390625 120.265625 298.046875 181.347656 287.019531 207.328125 C 286.605469 208.300781 286.144531 209.253906 285.640625 210.183594 C 285.136719 211.113281 284.589844 212.019531 284 212.898438 C 283.410156 213.777344 282.777344 214.625 282.109375 215.445312 C 281.4375 216.261719 280.730469 217.050781 279.988281 217.800781 C 279.242188 218.554688 278.464844 219.269531 277.652344 219.949219 C 276.839844 220.625 275.996094 221.265625 275.125 221.863281 C 274.25 222.464844 273.351562 223.019531 272.425781 223.535156 C 271.5 224.046875 270.554688 224.515625 269.585938 224.941406 C 268.613281 225.367188 267.628906 225.742188 266.621094 226.074219 C 265.617188 226.40625 264.597656 226.6875 263.566406 226.921875 C 262.535156 227.15625 261.492188 227.34375 260.441406 227.480469 C 259.394531 227.617188 258.339844 227.703125 257.28125 227.738281 C 256.222656 227.773438 255.167969 227.761719 254.109375 227.699219 C 253.054688 227.636719 252.003906 227.523438 250.957031 227.359375 C 249.910156 227.195312 248.875 226.984375 247.847656 226.722656 C 246.824219 226.464844 245.8125 226.15625 244.816406 225.796875 C 204.222656 211.082031 182.832031 195.34375 155.789062 177.972656 C 143.34375 170.21875 132.566406 165.878906 120.15625 165.503906 C 114.015625 165.539062 108.167969 166.867188 102.617188 169.488281 C 100.960938 170.269531 99.25 170.894531 97.480469 171.367188 C 91.769531 173.027344 85.800781 167.507812 87.304688 161.675781 C 88.96875 154.875 93.183594 152.921875 93.949219 152.285156 C 113.691406 136.65625 134.289062 141.949219 135.148438 142.179688 C 158.339844 148.058594 199.476562 163.15625 232.554688 175.289062 C 233.1875 175.503906 233.832031 175.683594 234.484375 175.828125 C 235.136719 175.972656 235.792969 176.082031 236.460938 176.15625 C 237.125 176.230469 237.789062 176.265625 238.460938 176.265625 C 239.128906 176.265625 239.792969 176.230469 240.460938 176.15625 C 241.125 176.085938 241.78125 175.976562 242.4375 175.832031 C 243.089844 175.6875 243.730469 175.507812 244.367188 175.292969 C 245 175.078125 245.617188 174.828125 246.222656 174.546875 C 246.832031 174.265625 247.417969 173.949219 247.992188 173.605469 C 248.5625 173.257812 249.113281 172.878906 249.644531 172.472656 C 250.175781 172.066406 250.683594 171.632812 251.164062 171.167969 C 251.648438 170.707031 252.105469 170.21875 252.535156 169.707031 C 252.964844 169.195312 253.367188 168.660156 253.738281 168.105469 C 254.109375 167.550781 254.449219 166.976562 254.757812 166.382812 C 255.066406 165.789062 255.34375 165.179688 255.585938 164.558594 C 255.828125 163.933594 256.035156 163.300781 256.210938 162.65625 C 256.382812 162.007812 256.519531 161.355469 256.621094 160.695312 L 268.804688 75.542969 C 270.714844 64.847656 276.265625 52.28125 291.800781 52.28125 C 305.222656 52.160156 316.335938 60.597656 315.34375 74.164062 Z M 315.34375 74.164062 " fill-opacity="1" fill-rule="nonzero"/></g><path fill="#ba5a87" d="M 149.660156 230.535156 C 150.285156 225.917969 148.777344 221.5 145.191406 217.398438 C 136.890625 207.464844 123.894531 212.75 116.835938 218.769531 C 109.796875 212.757812 96.78125 207.460938 88.484375 217.398438 C 84.894531 221.5 83.394531 225.917969 84.015625 230.535156 C 85.164062 239.046875 93.40625 244.882812 94.390625 245.554688 C 107.03125 254.84375 114.210938 262.746094 114.28125 262.824219 C 114.441406 263.003906 114.621094 263.164062 114.816406 263.304688 C 115.011719 263.445312 115.21875 263.566406 115.4375 263.664062 C 115.660156 263.761719 115.886719 263.835938 116.121094 263.886719 C 116.359375 263.9375 116.597656 263.960938 116.835938 263.960938 C 117.078125 263.960938 117.316406 263.9375 117.554688 263.886719 C 117.789062 263.835938 118.015625 263.761719 118.238281 263.664062 C 118.457031 263.566406 118.664062 263.445312 118.859375 263.304688 C 119.054688 263.164062 119.234375 263.003906 119.394531 262.824219 C 119.464844 262.746094 126.644531 254.84375 139.285156 245.554688 C 140.265625 244.882812 148.511719 239.046875 149.660156 230.535156 Z M 142.839844 229.589844 C 141.890625 235.589844 135.640625 239.667969 135.261719 239.96875 C 128.738281 244.71875 122.597656 249.921875 116.835938 255.570312 C 111.074219 249.921875 104.929688 244.71875 98.40625 239.96875 C 98.363281 239.9375 98.316406 239.90625 98.273438 239.875 C 98.207031 239.832031 91.585938 235.34375 90.832031 229.589844 C 90.488281 227.003906 91.414062 224.5 93.660156 221.929688 C 99.570312 214.328125 110.871094 222.179688 114.402344 225.78125 C 114.726562 226.101562 115.097656 226.347656 115.519531 226.523438 C 115.941406 226.695312 116.378906 226.785156 116.835938 226.785156 C 117.289062 226.785156 117.726562 226.699219 118.148438 226.523438 C 118.570312 226.351562 118.941406 226.105469 119.265625 225.78125 C 122.777344 222.183594 134.101562 214.316406 140.011719 221.929688 C 142.257812 224.5 143.183594 227.003906 142.84375 229.589844 Z M 142.839844 229.589844 " fill-opacity="1" fill-rule="nonzero"/></svg>