<svg xmlns="http://www.w3.org/2000/svg" xmlns:xlink="http://www.w3.org/1999/xlink" width="500" zoomAndPan="magnify" viewBox="0 0 375 374.999991" height="500" preserveAspectRatio="xMidYMid meet" version="1.0"><defs><clipPath id="eea01466cb"><path d="M 38 37.5 L 337 37.5 L 337 307 L 38 307 Z M 38 37.5 " clip-rule="nonzero"/></clipPath></defs><g clip-path="url(#eea01466cb)"><path stroke-linecap="round" transform="matrix(0.127984, 0, 0, -0.127984, -94.897768, 444.106723)" fill="none" stroke-linejoin="round" d="M 2205.981036 3141.595265 L 1078.036758 1487.128454 C 1746.147491 952.182048 2667.340645 1018.413217 3333.894793 1487.128454 Z M 2205.981036 3141.595265 " stroke="#f14b69" stroke-width="70" stroke-opacity="1" stroke-miterlimit="10"/></g><path stroke-linecap="round" transform="matrix(0.127984, 0, 0, -0.127984, -94.897768, 444.106723)" fill="none" stroke-linejoin="round" d="M 1234.214128 1716.129588 L 1078.036758 1487.128454 C 1746.147491 952.182048 2667.340645 1018.413217 3333.894793 1487.128454 L 3172.101509 1724.461896 C 2577.302881 1382.74569 1829.073798 1340.046424 1234.214128 1716.129588 Z M 1234.214128 1716.129588 " stroke="#44a93b" stroke-width="70" stroke-opacity="1" stroke-miterlimit="10"/><path fill="#e48d83" d="M 158.625 231.644531 C 171.878906 231.644531 171.996094 211.117188 158.769531 211.117188 C 145.519531 211.117188 145.402344 231.644531 158.625 231.644531 " fill-opacity="1" fill-rule="nonzero"/><path fill="#e48d83" d="M 216.09375 231.644531 C 229.347656 231.644531 229.464844 211.117188 216.238281 211.117188 C 202.984375 211.117188 202.871094 231.644531 216.09375 231.644531 " fill-opacity="1" fill-rule="nonzero"/><path fill="#e48d83" d="M 113.472656 218.878906 C 126.726562 218.878906 126.839844 198.34375 113.621094 198.34375 C 100.363281 198.34375 100.25 218.878906 113.472656 218.878906 " fill-opacity="1" fill-rule="nonzero"/><path fill="#e48d83" d="M 261.25 218.878906 C 274.503906 218.878906 274.617188 198.34375 261.394531 198.34375 C 248.140625 198.34375 248.027344 218.878906 261.25 218.878906 " fill-opacity="1" fill-rule="nonzero"/><path fill="#e48d83" d="M 187.359375 188.085938 C 200.613281 188.085938 200.730469 167.558594 187.507812 167.558594 C 174.253906 167.558594 174.140625 188.085938 187.359375 188.085938 " fill-opacity="1" fill-rule="nonzero"/><path fill="#e48d83" d="M 141.976562 184.558594 C 155.230469 184.558594 155.347656 164.03125 142.125 164.03125 C 128.871094 164.03125 128.753906 184.558594 141.976562 184.558594 " fill-opacity="1" fill-rule="nonzero"/><path fill="#e48d83" d="M 232.742188 184.558594 C 245.996094 184.558594 246.109375 164.03125 232.886719 164.03125 C 219.632812 164.03125 219.519531 184.558594 232.742188 184.558594 " fill-opacity="1" fill-rule="nonzero"/><path fill="#e48d83" d="M 167.746094 140.199219 C 181 140.199219 181.117188 119.671875 167.894531 119.671875 C 154.640625 119.671875 154.527344 140.199219 167.746094 140.199219 " fill-opacity="1" fill-rule="nonzero"/><path fill="#e48d83" d="M 206.96875 140.199219 C 220.222656 140.199219 220.34375 119.671875 207.121094 119.671875 C 193.867188 119.671875 193.746094 140.199219 206.96875 140.199219 " fill-opacity="1" fill-rule="nonzero"/></svg>