<svg xmlns="http://www.w3.org/2000/svg" xmlns:xlink="http://www.w3.org/1999/xlink" width="500" zoomAndPan="magnify" viewBox="0 0 375 374.999991" height="500" preserveAspectRatio="xMidYMid meet" version="1.0"><defs><clipPath id="127856a446"><path d="M 42 42 L 333 42 L 333 333 L 42 333 Z M 42 42 " clip-rule="nonzero"/></clipPath><clipPath id="11882aaeeb"><path d="M 47.078125 37.5 L 337.171875 47.070312 L 327.601562 337.160156 L 37.511719 327.59375 Z M 47.078125 37.5 " clip-rule="nonzero"/></clipPath><clipPath id="a60e78795b"><path d="M 47.078125 37.5 L 337.171875 47.070312 L 327.601562 337.160156 L 37.511719 327.59375 Z M 47.078125 37.5 " clip-rule="nonzero"/></clipPath><clipPath id="92ec0204dc"><path d="M 79.210938 82.949219 L 295 82.949219 L 295 278 L 79.210938 278 Z M 79.210938 82.949219 " clip-rule="nonzero"/></clipPath><clipPath id="f9af00d848"><path d="M 79.210938 213 L 295 213 L 295 278 L 79.210938 278 Z M 79.210938 213 " clip-rule="nonzero"/></clipPath></defs><g clip-path="url(#127856a446)"><g clip-path="url(#11882aaeeb)"><g clip-path="url(#a60e78795b)"><path fill="#f18c92" d="M 182.703125 332.699219 C 102.484375 330.050781 39.660156 262.476562 42.289062 182.703125 C 44.921875 102.933594 112.0625 39.644531 192.285156 42.289062 C 272.503906 44.9375 335.34375 112.0625 332.699219 192.285156 C 330.050781 272.503906 262.476562 335.328125 182.703125 332.699219 Z M 191.988281 51.253906 C 116.699219 48.769531 53.738281 107.707031 51.253906 183 C 48.769531 258.292969 107.710938 321.25 183 323.734375 C 258.292969 326.21875 321.25 267.28125 323.734375 191.988281 C 326.21875 116.699219 266.832031 53.722656 191.988281 51.253906 Z M 191.988281 51.253906 " fill-opacity="1" fill-rule="nonzero"/></g></g></g><g clip-path="url(#92ec0204dc)"><path stroke-linecap="round" transform="matrix(0.0923984, 0, 0, -0.0923984, -16.380492, 376.500268)" fill="none" stroke-linejoin="round" d="M 2205.986701 3141.628199 L 1078.059005 1487.108772 C 1746.149012 952.18864 2667.346332 1018.393091 3333.914397 1487.108772 Z M 2205.986701 3141.628199 " stroke="#f14b69" stroke-width="70" stroke-opacity="1" stroke-miterlimit="10"/></g><g clip-path="url(#f9af00d848)"><path stroke-linecap="round" transform="matrix(0.0923984, 0, 0, -0.0923984, -16.380492, 376.500268)" fill="none" stroke-linejoin="round" d="M 1234.227105 1716.160956 L 1078.059005 1487.108772 C 1746.149012 952.18864 2667.346332 1018.393091 3333.914397 1487.108772 L 3172.123569 1724.447081 C 2577.298131 1382.728957 1829.052543 1340.030045 1234.227105 1716.160956 Z M 1234.227105 1716.160956 " stroke="#44a93b" stroke-width="70" stroke-opacity="1" stroke-miterlimit="10"/></g><path fill="#e48d83" d="M 166.652344 223.113281 C 176.21875 223.113281 176.300781 208.292969 166.757812 208.292969 C 157.1875 208.292969 157.105469 223.113281 166.652344 223.113281 " fill-opacity="1" fill-rule="nonzero"/><path fill="#e48d83" d="M 208.140625 223.113281 C 217.707031 223.113281 217.792969 208.292969 208.246094 208.292969 C 198.675781 208.292969 198.59375 223.113281 208.140625 223.113281 " fill-opacity="1" fill-rule="nonzero"/><path fill="#e48d83" d="M 134.050781 213.894531 C 143.621094 213.894531 143.703125 199.074219 134.160156 199.074219 C 124.589844 199.074219 124.503906 213.894531 134.050781 213.894531 " fill-opacity="1" fill-rule="nonzero"/><path fill="#e48d83" d="M 240.738281 213.894531 C 250.308594 213.894531 250.390625 199.074219 240.84375 199.074219 C 231.277344 199.074219 231.191406 213.894531 240.738281 213.894531 " fill-opacity="1" fill-rule="nonzero"/><path fill="#e48d83" d="M 187.394531 191.667969 C 196.960938 191.667969 197.050781 176.847656 187.503906 176.847656 C 177.933594 176.847656 177.851562 191.667969 187.394531 191.667969 " fill-opacity="1" fill-rule="nonzero"/><path fill="#e48d83" d="M 154.632812 189.117188 C 164.199219 189.117188 164.285156 174.296875 154.738281 174.296875 C 145.167969 174.296875 145.085938 189.117188 154.632812 189.117188 " fill-opacity="1" fill-rule="nonzero"/><path fill="#e48d83" d="M 220.160156 189.117188 C 229.726562 189.117188 229.8125 174.296875 220.265625 174.296875 C 210.695312 174.296875 210.613281 189.117188 220.160156 189.117188 " fill-opacity="1" fill-rule="nonzero"/><path fill="#e48d83" d="M 173.234375 157.09375 C 182.804688 157.09375 182.890625 142.273438 173.34375 142.273438 C 163.773438 142.273438 163.691406 157.09375 173.234375 157.09375 " fill-opacity="1" fill-rule="nonzero"/><path fill="#e48d83" d="M 201.554688 157.09375 C 211.121094 157.09375 211.207031 142.273438 201.660156 142.273438 C 192.09375 142.273438 192.007812 157.09375 201.554688 157.09375 " fill-opacity="1" fill-rule="nonzero"/></svg>