<svg xmlns="http://www.w3.org/2000/svg" xmlns:xlink="http://www.w3.org/1999/xlink" width="500" zoomAndPan="magnify" viewBox="0 0 375 374.999991" height="500" preserveAspectRatio="xMidYMid meet" version="1.0"><defs><clipPath id="916b997b99"><path d="M 42 42 L 333 42 L 333 333 L 42 333 Z M 42 42 " clip-rule="nonzero"/></clipPath><clipPath id="5dfacd628a"><path d="M 47.078125 37.5 L 337.171875 47.070312 L 327.601562 337.160156 L 37.511719 327.59375 Z M 47.078125 37.5 " clip-rule="nonzero"/></clipPath><clipPath id="345e5dd7b3"><path d="M 47.078125 37.5 L 337.171875 47.070312 L 327.601562 337.160156 L 37.511719 327.59375 Z M 47.078125 37.5 " clip-rule="nonzero"/></clipPath><clipPath id="d235af082c"><path d="M 87 79 L 282 79 L 282 286 L 87 286 Z M 87 79 " clip-rule="nonzero"/></clipPath><clipPath id="7fe3b67dd3"><path d="M 90.027344 71.125 L 283.421875 77.503906 L 276.5 287.390625 L 83.105469 281.011719 Z M 90.027344 71.125 " clip-rule="nonzero"/></clipPath><clipPath id="1a1dbfa4e0"><path d="M 90.027344 71.125 L 283.421875 77.503906 L 276.5 287.390625 L 83.105469 281.011719 Z M 90.027344 71.125 " clip-rule="nonzero"/></clipPath><clipPath id="30529b813c"><path d="M 108 192 L 156 192 L 156 231 L 108 231 Z M 108 192 " clip-rule="nonzero"/></clipPath><clipPath id="ef81f64240"><path d="M 90.027344 71.125 L 283.421875 77.503906 L 276.5 287.390625 L 83.105469 281.011719 Z M 90.027344 71.125 " clip-rule="nonzero"/></clipPath><clipPath id="1322d076e4"><path d="M 90.027344 71.125 L 283.421875 77.503906 L 276.5 287.390625 L 83.105469 281.011719 Z M 90.027344 71.125 " clip-rule="nonzero"/></clipPath></defs><g clip-path="url(#916b997b99)"><g clip-path="url(#5dfacd628a)"><g clip-path="url(#345e5dd7b3)"><path fill="#f18c92" d="M 182.703125 332.699219 C 102.484375 330.050781 39.660156 262.476562 42.289062 182.703125 C 44.921875 102.933594 112.0625 39.644531 192.285156 42.289062 C 272.503906 44.9375 335.34375 112.0625 332.699219 192.285156 C 330.050781 272.503906 262.476562 335.328125 182.703125 332.699219 Z M 191.988281 51.253906 C 116.699219 48.769531 53.738281 107.707031 51.253906 183 C 48.769531 258.292969 107.710938 321.25 183 323.734375 C 258.292969 326.21875 321.25 267.28125 323.734375 191.988281 C 326.21875 116.699219 266.832031 53.722656 191.988281 51.253906 Z M 191.988281 51.253906 " fill-opacity="1" fill-rule="nonzero"/></g></g></g><g clip-path="url(#d235af082c)"><g clip-path="url(#7fe3b67dd3)"><g clip-path="url(#1a1dbfa4e0)"><path fill="#ba5a87" d="M 261.503906 79.382812 C 259.417969 79.003906 239.484375 76.078125 213.03125 97.550781 C 204.085938 104.945312 191.296875 106.980469 180.816406 102.519531 C 186.714844 100.445312 196.289062 96.523438 204.738281 90.535156 C 207.832031 88.34375 211.167969 86.617188 214.746094 85.359375 C 215.050781 85.25 215.324219 85.089844 215.5625 84.871094 C 215.804688 84.65625 215.996094 84.402344 216.136719 84.109375 C 216.273438 83.816406 216.355469 83.507812 216.371094 83.1875 C 216.386719 82.863281 216.34375 82.546875 216.234375 82.242188 C 216.128906 81.9375 215.964844 81.664062 215.75 81.421875 C 215.53125 81.183594 215.277344 80.992188 214.984375 80.851562 C 214.695312 80.710938 214.386719 80.632812 214.0625 80.617188 C 213.738281 80.597656 213.425781 80.644531 213.121094 80.75 C 209.113281 82.160156 205.375 84.09375 201.910156 86.550781 C 189.628906 95.257812 174.25 99.507812 173.957031 99.585938 C 167.226562 100.941406 128.097656 114.347656 142.46875 138.609375 C 140.019531 138.402344 137.574219 138.417969 135.125 138.65625 C 132.679688 138.894531 130.277344 139.351562 127.914062 140.023438 C 125.550781 140.699219 123.269531 141.582031 121.066406 142.671875 C 118.863281 143.761719 116.777344 145.039062 114.808594 146.507812 C 113.09375 147.550781 111.636719 148.878906 110.445312 150.496094 C 109.25 152.109375 108.410156 153.890625 107.914062 155.835938 C 107.769531 156.40625 107.675781 156.988281 107.625 157.574219 C 107.578125 158.164062 107.574219 158.75 107.625 159.335938 C 107.671875 159.925781 107.769531 160.503906 107.910156 161.078125 C 108.054688 161.648438 108.246094 162.203125 108.480469 162.746094 C 108.71875 163.285156 108.996094 163.804688 109.316406 164.296875 C 109.636719 164.792969 110 165.257812 110.394531 165.691406 C 110.792969 166.125 111.226562 166.527344 111.6875 166.890625 C 112.152344 167.253906 112.644531 167.578125 113.160156 167.859375 C 99.132812 185.945312 91.210938 207.960938 89.605469 233.335938 C 84.25 248.859375 89.492188 280.183594 119.742188 282.15625 C 124.648438 282.34375 129.3125 281.371094 133.738281 279.234375 C 150.535156 270.761719 142.25 244.113281 123.414062 248.644531 C 123.675781 242.796875 116.921875 238.660156 111.828125 241.671875 C 103.917969 245.84375 98.859375 241.585938 94.503906 233.292969 C 96.148438 208.269531 104.167969 186.703125 118.347656 169.175781 C 120.769531 169.148438 122.890625 168.386719 125.242188 167.433594 C 137.109375 162.617188 147.0625 167.074219 158.089844 174.226562 C 177.101562 187.34375 192.117188 199.164062 221.109375 210.761719 C 223.714844 211.792969 226.410156 212.429688 229.199219 212.667969 C 231.988281 212.90625 234.75 212.738281 237.492188 212.164062 C 234.195312 224.792969 234.867188 238.144531 240.058594 250.152344 C 248.253906 269.382812 246.675781 282.273438 246.652344 282.457031 C 246.605469 282.78125 246.625 283.097656 246.707031 283.410156 C 246.789062 283.722656 246.925781 284.007812 247.121094 284.265625 C 247.316406 284.527344 247.554688 284.738281 247.835938 284.898438 C 248.113281 285.0625 248.414062 285.167969 248.734375 285.210938 C 249.054688 285.257812 249.371094 285.238281 249.6875 285.15625 C 250 285.074219 250.285156 284.9375 250.542969 284.742188 C 250.800781 284.546875 251.011719 284.308594 251.175781 284.027344 C 251.339844 283.75 251.445312 283.449219 251.488281 283.128906 C 251.570312 282.554688 253.34375 268.871094 244.550781 248.238281 C 239.285156 236.265625 239.3125 222.898438 242.949219 210.453125 C 244.566406 209.765625 246.105469 208.9375 247.570312 207.964844 C 249.035156 206.996094 250.398438 205.898438 251.660156 204.675781 C 252.921875 203.453125 254.058594 202.128906 255.078125 200.695312 C 256.09375 199.261719 256.972656 197.75 257.710938 196.15625 C 266.488281 177.234375 278.082031 134.382812 281.351562 100.753906 C 282.621094 88.8125 273.464844 80.085938 261.503906 79.382812 Z M 102.199219 247.570312 C 106.011719 248.765625 110.167969 248.199219 114.214844 245.933594 C 117.113281 244.316406 120.019531 248.15625 117.683594 250.511719 L 115.90625 252.308594 C 113.972656 254.261719 116.316406 257.457031 118.757812 256.195312 L 122.820312 254.101562 C 123.757812 253.613281 124.75 253.285156 125.796875 253.113281 C 126.839844 252.941406 127.886719 252.933594 128.933594 253.09375 C 129.980469 253.253906 130.976562 253.574219 131.921875 254.050781 C 132.867188 254.527344 133.714844 255.140625 134.464844 255.886719 C 140.167969 261.257812 138.691406 271.519531 131.558594 274.863281 C 120.78125 280.144531 107 276.496094 99.480469 267.054688 C 92.257812 258.140625 92.25 247.101562 93.128906 240.453125 C 95.800781 244.132812 98.835938 246.515625 102.199219 247.570312 Z M 144.929688 124.335938 C 148.8125 112.53125 169.394531 105.96875 174.191406 104.589844 C 186.898438 112.601562 204.433594 111.054688 216.109375 101.34375 C 227.34375 92.226562 237.3125 87.8125 244.960938 85.726562 C 242.003906 89.039062 239.847656 93.574219 238.65625 99.203125 C 238.664062 99.207031 228 159.394531 228.007812 159.425781 C 227.894531 160.007812 227.722656 160.570312 227.488281 161.117188 C 227.253906 161.660156 226.960938 162.175781 226.617188 162.65625 C 226.269531 163.140625 225.875 163.578125 225.433594 163.972656 C 224.992188 164.371094 224.511719 164.710938 223.992188 165.003906 C 223.476562 165.292969 222.933594 165.527344 222.367188 165.699219 C 221.796875 165.871094 221.21875 165.980469 220.628906 166.027344 C 220.035156 166.074219 219.445312 166.054688 218.859375 165.972656 C 218.269531 165.890625 217.699219 165.746094 217.140625 165.539062 C 203.457031 160 190.621094 154.835938 179.277344 150.476562 C 185.195312 149.371094 192.082031 146.527344 199 140.273438 C 199.238281 140.054688 199.425781 139.800781 199.566406 139.507812 C 199.703125 139.214844 199.78125 138.910156 199.796875 138.585938 C 199.8125 138.261719 199.765625 137.949219 199.65625 137.644531 C 199.546875 137.339844 199.386719 137.066406 199.167969 136.828125 C 198.953125 136.589844 198.699219 136.398438 198.40625 136.261719 C 198.113281 136.121094 197.804688 136.042969 197.484375 136.027344 C 197.160156 136.011719 196.847656 136.054688 196.542969 136.164062 C 196.238281 136.273438 195.964844 136.433594 195.722656 136.652344 C 174.796875 154.003906 163.25 143.28125 149.21875 139.871094 C 144.820312 134.285156 143.371094 129.0625 144.929688 124.335938 Z M 276.492188 100.285156 C 273.320312 132.925781 261.710938 175.925781 253.28125 194.101562 C 252.964844 194.78125 252.617188 195.445312 252.234375 196.09375 C 251.855469 196.742188 251.445312 197.371094 251.007812 197.980469 C 250.570312 198.589844 250.101562 199.179688 249.605469 199.746094 C 249.113281 200.308594 248.589844 200.851562 248.046875 201.367188 C 247.5 201.882812 246.929688 202.371094 246.339844 202.835938 C 245.746094 203.296875 245.132812 203.730469 244.5 204.136719 C 243.867188 204.539062 243.214844 204.914062 242.546875 205.257812 C 241.878906 205.601562 241.195312 205.910156 240.5 206.1875 C 239.800781 206.46875 239.089844 206.710938 238.371094 206.925781 C 237.648438 207.136719 236.917969 207.3125 236.179688 207.453125 C 235.445312 207.597656 234.699219 207.703125 233.953125 207.777344 C 233.203125 207.847656 232.457031 207.886719 231.703125 207.886719 C 230.953125 207.886719 230.203125 207.851562 229.453125 207.785156 C 228.707031 207.714844 227.964844 207.609375 227.226562 207.46875 C 226.488281 207.328125 225.757812 207.15625 225.035156 206.945312 C 224.3125 206.738281 223.601562 206.492188 222.902344 206.21875 C 194.449219 194.824219 179.640625 183.160156 160.859375 170.203125 C 152.210938 164.410156 144.664062 161.078125 135.867188 160.519531 C 131.511719 160.402344 127.332031 161.207031 123.332031 162.9375 C 122.140625 163.453125 120.910156 163.859375 119.644531 164.148438 C 115.554688 165.195312 111.449219 161.136719 112.648438 157.035156 C 113.988281 152.25 117.027344 150.964844 117.585938 150.527344 C 131.960938 139.902344 146.449219 144.140625 147.050781 144.324219 C 163.371094 149.039062 192.203125 160.714844 215.386719 170.09375 C 215.832031 170.261719 216.285156 170.40625 216.742188 170.523438 C 217.203125 170.640625 217.667969 170.734375 218.136719 170.800781 C 218.609375 170.867188 219.078125 170.910156 219.554688 170.925781 C 220.027344 170.941406 220.503906 170.929688 220.976562 170.894531 C 221.449219 170.859375 221.917969 170.796875 222.386719 170.710938 C 222.851562 170.625 223.3125 170.511719 223.765625 170.375 C 224.222656 170.234375 224.667969 170.074219 225.105469 169.886719 C 225.539062 169.703125 225.964844 169.492188 226.378906 169.261719 C 226.792969 169.027344 227.191406 168.773438 227.578125 168.496094 C 227.964844 168.21875 228.335938 167.925781 228.6875 167.605469 C 229.042969 167.289062 229.378906 166.957031 229.695312 166.601562 C 230.011719 166.25 230.308594 165.878906 230.585938 165.492188 C 230.863281 165.109375 231.117188 164.707031 231.351562 164.296875 C 231.582031 163.882812 231.792969 163.457031 231.980469 163.019531 C 232.167969 162.582031 232.328125 162.136719 232.464844 161.683594 C 232.605469 161.230469 232.71875 160.769531 232.804688 160.304688 L 243.441406 100.171875 C 245.046875 92.628906 249.277344 83.84375 260.304688 84.207031 C 269.828125 84.4375 277.515625 90.683594 276.492188 100.285156 Z M 276.492188 100.285156 " fill-opacity="1" fill-rule="nonzero"/></g></g></g><g clip-path="url(#30529b813c)"><g clip-path="url(#ef81f64240)"><g clip-path="url(#1322d076e4)"><path fill="#ba5a87" d="M 155.28125 207.351562 C 155.832031 204.089844 154.867188 200.921875 152.417969 197.925781 C 146.761719 190.683594 137.417969 194.128906 132.269531 198.234375 C 127.414062 193.808594 118.300781 189.742188 112.183594 196.601562 C 109.542969 199.425781 108.371094 202.523438 108.707031 205.816406 C 109.320312 211.878906 115.03125 216.214844 115.714844 216.714844 C 124.464844 223.601562 129.375 229.375 129.425781 229.433594 C 129.648438 229.695312 129.914062 229.90625 130.226562 230.054688 C 130.535156 230.207031 130.867188 230.289062 131.210938 230.300781 C 131.558594 230.3125 131.890625 230.25 132.210938 230.121094 C 132.53125 229.992188 132.8125 229.800781 133.050781 229.550781 C 133.105469 229.496094 138.382812 224.058594 147.566406 217.765625 C 148.28125 217.3125 154.265625 213.363281 155.28125 207.351562 Z M 150.464844 206.523438 C 149.648438 210.757812 145.121094 213.503906 144.847656 213.707031 C 140.105469 216.925781 135.625 220.472656 131.40625 224.347656 C 127.449219 220.203125 123.210938 216.367188 118.695312 212.84375 C 118.667969 212.820312 118.632812 212.796875 118.601562 212.777344 C 118.558594 212.742188 113.964844 209.40625 113.5625 205.304688 C 113.382812 203.460938 114.097656 201.707031 115.75 199.9375 C 120.121094 194.679688 127.953125 200.515625 130.378906 203.152344 C 130.597656 203.386719 130.859375 203.574219 131.152344 203.707031 C 131.445312 203.839844 131.753906 203.910156 132.078125 203.921875 C 132.402344 203.933594 132.714844 203.882812 133.015625 203.769531 C 133.320312 203.65625 133.589844 203.488281 133.828125 203.269531 C 136.402344 200.796875 144.621094 195.480469 148.636719 201.023438 C 150.171875 202.894531 150.769531 204.695312 150.464844 206.523438 Z M 150.464844 206.523438 " fill-opacity="1" fill-rule="nonzero"/></g></g></g></svg>